<?xml version="1.0" encoding="utf-8"?>
<!-- Generator: Adobe Illustrator 27.5.0, SVG Export Plug-In . SVG Version: 6.00 Build 0)  -->
<svg version="1.1" id="Layer_1" xmlns="http://www.w3.org/2000/svg" xmlns:xlink="http://www.w3.org/1999/xlink" x="0px" y="0px"
	 viewBox="0 0 200 200" style="enable-background:new 0 0 200 200;" xml:space="preserve">
<style type="text/css">
	.st0{fill:url(#SVGID_1_);}
	.st1{fill:url(#SVGID_00000150092035393613235030000017634289107029805445_);}
	.st2{fill:url(#SVGID_00000181071756242314569920000001789778874896757650_);}
	.st3{opacity:0.4;fill:url(#SVGID_00000167358162335688154910000004309944701643632772_);}
	.st4{fill:url(#SVGID_00000086686578918884875090000010173788874995272100_);}
	.st5{fill:url(#SVGID_00000040559482635509635530000016402810776598210193_);}
	.st6{fill:url(#SVGID_00000167393954317301372460000005135505701904657327_);}
	.st7{opacity:0.4;fill:url(#SVGID_00000084532167218974189940000014202525943060847785_);}
	.st8{opacity:0.2;fill:url(#SVGID_00000076577184183444355660000003914774112266258076_);}
</style>
<g>
	<g>
		<linearGradient id="SVGID_1_" gradientUnits="userSpaceOnUse" x1="187.1886" y1="28.8924" x2="97.0477" y2="129.6221">
			<stop  offset="0" style="stop-color:#FFBA24"/>
			<stop  offset="1" style="stop-color:#FF5500"/>
		</linearGradient>
		<polygon class="st0" points="180.56,113.11 169.32,113.85 167.2,124.91 156.39,121.76 150.62,131.43 141.54,124.77 132.81,131.89 
			126.55,122.53 115.92,126.22 113.24,115.28 101.98,115.12 103.2,103.92 92.68,99.92 97.66,89.82 89.14,82.46 97.27,74.67 
			91.78,64.84 102.09,60.3 100.3,49.19 111.53,48.45 113.65,37.39 124.46,40.54 130.23,30.87 139.31,37.52 148.04,30.41 
			154.3,39.77 164.94,36.08 167.61,47.02 178.87,47.18 177.65,58.37 188.17,62.38 183.19,72.47 191.71,79.84 183.58,87.63 
			189.07,97.46 178.76,102 		"/>
		
			<radialGradient id="SVGID_00000158721511183811772560000012491351968862773380_" cx="-123.4401" cy="57.3305" r="72.1139" gradientTransform="matrix(-1 0 0 1 25.6729 0)" gradientUnits="userSpaceOnUse">
			<stop  offset="0" style="stop-color:#FFF4C3"/>
			<stop  offset="0.1559" style="stop-color:#FFE036"/>
			<stop  offset="1" style="stop-color:#FA761C"/>
		</radialGradient>
		<circle style="fill:url(#SVGID_00000158721511183811772560000012491351968862773380_);" cx="140.43" cy="81.15" r="37.99"/>
		<g>
			
				<radialGradient id="SVGID_00000062874229018978129800000010005969236674633908_" cx="1114.7021" cy="-1836.7196" r="10.825" gradientTransform="matrix(-0.8392 1.1536 -1.6186 -1.3126 -1882.1594 -3632.0471)" gradientUnits="userSpaceOnUse">
				<stop  offset="0" style="stop-color:#FFFFFF"/>
				<stop  offset="1" style="stop-color:#FFFFFF;stop-opacity:0"/>
			</radialGradient>
			<path style="fill:url(#SVGID_00000062874229018978129800000010005969236674633908_);" d="M146.21,77.24
				c-9.68-7.85-13.45-19.8-8.44-26.7c5.02-6.9,16.93-6.12,26.61,1.72c9.67,7.85,13.45,19.8,8.43,26.7
				C167.8,85.86,155.89,85.09,146.21,77.24z"/>
			
				<radialGradient id="SVGID_00000008147318862024212290000013001670810354544515_" cx="-2955.5798" cy="3015.9663" r="10.4455" gradientTransform="matrix(-1.1717 -1.1007 0.222 -0.7283 -4013.5071 -955.6343)" gradientUnits="userSpaceOnUse">
				<stop  offset="0" style="stop-color:#FFFFFF"/>
				<stop  offset="1" style="stop-color:#FFFFFF;stop-opacity:0"/>
			</radialGradient>
			<path style="opacity:0.4;fill:url(#SVGID_00000008147318862024212290000013001670810354544515_);" d="M106.85,89.55
				c1.28-4.2,7.79-2.46,14.56,3.89c6.76,6.35,11.2,14.89,9.92,19.11c-1.28,4.2-7.8,2.46-14.56-3.89
				C110.02,102.3,105.57,93.74,106.85,89.55z"/>
		</g>
	</g>
	<g>
		
			<radialGradient id="SVGID_00000181053043754379949740000010506979205716165277_" cx="110.2104" cy="76.4508" r="124.0567" gradientTransform="matrix(-1 0 0 -0.7305 220.4208 132.2971)" gradientUnits="userSpaceOnUse">
			<stop  offset="0" style="stop-color:#FFFFFF"/>
			<stop  offset="0.198" style="stop-color:#D5F3FF"/>
			<stop  offset="1" style="stop-color:#85BCF1"/>
		</radialGradient>
		<path style="fill:url(#SVGID_00000181053043754379949740000010506979205716165277_);" d="M137.27,96.53
			c-1.69-24.8-22.34-44.4-47.57-44.4c-25.23,0-45.88,19.6-47.57,44.4c-18.8,0.93-33.75,16.46-33.75,35.49
			c0,19.63,15.91,35.54,35.53,35.54h91.58c19.62,0,35.53-15.91,35.53-35.54C171.02,112.99,156.07,97.46,137.27,96.53z"/>
		
			<radialGradient id="SVGID_00000054956494477213726460000002845777096034650497_" cx="127.7892" cy="86.8539" r="105.4619" gradientUnits="userSpaceOnUse">
			<stop  offset="0" style="stop-color:#FFE036"/>
			<stop  offset="5.172825e-03" style="stop-color:#FFDF36;stop-opacity:0.9933"/>
			<stop  offset="0.1623" style="stop-color:#FDB92C;stop-opacity:0.789"/>
			<stop  offset="0.319" style="stop-color:#FC9C25;stop-opacity:0.5851"/>
			<stop  offset="0.4735" style="stop-color:#FB8720;stop-opacity:0.3841"/>
			<stop  offset="0.6247" style="stop-color:#FA7A1D;stop-opacity:0.1875"/>
			<stop  offset="0.7688" style="stop-color:#FA761C;stop-opacity:0"/>
		</radialGradient>
		<path style="fill:url(#SVGID_00000054956494477213726460000002845777096034650497_);" d="M137.27,96.53
			c-1.69-24.8-22.34-44.4-47.57-44.4c-25.23,0-45.88,19.6-47.57,44.4c-18.8,0.93-33.75,16.46-33.75,35.49
			c0,19.63,15.91,35.54,35.53,35.54h91.58c19.62,0,35.53-15.91,35.53-35.54C171.02,112.99,156.07,97.46,137.27,96.53z"/>
		
			<radialGradient id="SVGID_00000152249964849173328240000009147467137152334728_" cx="1148.4698" cy="-1821.4634" r="14.9669" gradientTransform="matrix(-0.8392 1.1536 -1.6186 -1.3126 -1882.1594 -3632.0471)" gradientUnits="userSpaceOnUse">
			<stop  offset="0" style="stop-color:#FFFFFF"/>
			<stop  offset="1" style="stop-color:#FFFFFF;stop-opacity:0"/>
		</radialGradient>
		<path style="fill:url(#SVGID_00000152249964849173328240000009147467137152334728_);" d="M89.71,100.95
			C76.33,90.09,71.1,73.57,78.04,64.04c6.94-9.54,23.41-8.47,36.79,2.38c13.37,10.85,18.59,27.38,11.66,36.91
			C119.55,112.87,103.08,111.79,89.71,100.95z"/>
		
			<radialGradient id="SVGID_00000167382957669008526590000015363440671860033720_" cx="1148.0208" cy="-1849.1108" r="11.7624" gradientTransform="matrix(-0.8392 1.1536 -1.6186 -1.3126 -1882.1594 -3632.0471)" gradientUnits="userSpaceOnUse">
			<stop  offset="0" style="stop-color:#FFFFFF"/>
			<stop  offset="1" style="stop-color:#FFFFFF;stop-opacity:0"/>
		</radialGradient>
		<path style="opacity:0.4;fill:url(#SVGID_00000167382957669008526590000015363440671860033720_);" d="M137.52,133.02
			c-10.51-8.53-14.62-21.52-9.17-29.01c5.45-7.49,18.4-6.65,28.91,1.87c10.51,8.53,14.61,21.52,9.16,29
			C160.97,142.39,148.03,141.55,137.52,133.02z"/>
		
			<radialGradient id="SVGID_00000107590569432826702570000012702065662502475917_" cx="27.6892" cy="143.1066" r="8.6012" gradientTransform="matrix(0.901 -0.4338 1.2628 2.6229 -177.9692 -220.2391)" gradientUnits="userSpaceOnUse">
			<stop  offset="0" style="stop-color:#FFFFFF"/>
			<stop  offset="1" style="stop-color:#FFFFFF;stop-opacity:0"/>
		</radialGradient>
		<path style="opacity:0.2;fill:url(#SVGID_00000107590569432826702570000012702065662502475917_);" d="M33.79,134.21
			c-7.76-12.1-16.77-17.93-20.14-13.02c-3.36,4.9,0.19,18.7,7.95,30.8c7.76,12.1,16.78,17.93,20.14,13.02
			C45.1,160.1,41.54,146.32,33.79,134.21z"/>
	</g>
</g>
</svg>
