<?xml version="1.0" encoding="utf-8"?>
<!-- Generator: Adobe Illustrator 27.5.0, SVG Export Plug-In . SVG Version: 6.00 Build 0)  -->
<svg version="1.1" id="Layer_1" xmlns="http://www.w3.org/2000/svg" xmlns:xlink="http://www.w3.org/1999/xlink" x="0px" y="0px"
	 viewBox="0 0 200 200" style="enable-background:new 0 0 200 200;" xml:space="preserve">
<style type="text/css">
	.st0{fill:url(#SVGID_1_);}
	.st1{fill:url(#SVGID_00000006705037378639266240000008185869781240810665_);}
	.st2{opacity:0.4;fill:url(#SVGID_00000172440680898220120360000010683956380992293538_);}
	.st3{opacity:0.2;fill:url(#SVGID_00000018920354082563290870000000921705761854565508_);}
	.st4{fill:url(#SVGID_00000051356679464777728680000005714478784654909589_);}
	.st5{fill:url(#SVGID_00000031901879968822674610000011745710019053233044_);}
	.st6{fill:url(#SVGID_00000145772144068124068080000005499035328969768325_);}
	.st7{fill:url(#SVGID_00000016034919938378051760000015014753679925164983_);}
	.st8{fill:url(#SVGID_00000008142333417316793520000000025135699603266459_);}
	.st9{fill:url(#SVGID_00000026141615390250840380000002130265647896068769_);}
	.st10{fill:url(#SVGID_00000026149312374303446010000009024076960785054896_);}
	.st11{fill:url(#SVGID_00000036935739110829391030000003977037702391010462_);}
	.st12{fill:url(#SVGID_00000111913397079777762430000004767600467295614374_);}
	.st13{fill:url(#SVGID_00000080176776505351802290000008202631380671229345_);}
	.st14{fill:url(#SVGID_00000086672957569776511550000004055739643782173630_);}
	.st15{fill:url(#SVGID_00000028312701394210583250000017687456676224357549_);}
	.st16{fill:url(#SVGID_00000045602175883870135990000005760633692063281559_);}
	.st17{fill:url(#SVGID_00000078019595962392915650000015516111439193187002_);}
</style>
<g>
	<g>
		
			<radialGradient id="SVGID_1_" cx="121.9561" cy="37.3346" r="132.0498" gradientTransform="matrix(-1 0 0 -0.7305 243.9123 64.6071)" gradientUnits="userSpaceOnUse">
			<stop  offset="0" style="stop-color:#FFFFFF"/>
			<stop  offset="0.198" style="stop-color:#D5F3FF"/>
			<stop  offset="1" style="stop-color:#85BCF1"/>
		</radialGradient>
		<path class="st0" d="M150.76,58.7c-1.8-26.4-23.78-47.26-50.64-47.26c-26.86,0-48.83,20.86-50.64,47.26
			c-20.01,0.99-35.93,17.52-35.93,37.77c0,20.89,16.93,37.82,37.82,37.82h97.48c20.89,0,37.82-16.93,37.82-37.82
			C186.69,76.23,170.77,59.69,150.76,58.7z"/>
		
			<radialGradient id="SVGID_00000044141549585756771760000016598005773284448668_" cx="1122.4294" cy="-1814.9021" r="15.9311" gradientTransform="matrix(-0.8392 1.1536 -1.6186 -1.3126 -1882.1594 -3632.0471)" gradientUnits="userSpaceOnUse">
			<stop  offset="0" style="stop-color:#FFFFFF"/>
			<stop  offset="1" style="stop-color:#FFFFFF;stop-opacity:0"/>
		</radialGradient>
		<path style="fill:url(#SVGID_00000044141549585756771760000016598005773284448668_);" d="M100.13,63.41
			c-14.24-11.55-19.8-29.14-12.42-39.29c7.39-10.15,24.92-9.01,39.16,2.53c14.23,11.55,19.79,29.14,12.41,39.29
			C131.9,76.09,114.37,74.95,100.13,63.41z"/>
		
			<radialGradient id="SVGID_00000070803135903462934030000001464140300970004392_" cx="1121.9506" cy="-1844.3326" r="12.5208" gradientTransform="matrix(-0.8392 1.1536 -1.6186 -1.3126 -1882.1594 -3632.0471)" gradientUnits="userSpaceOnUse">
			<stop  offset="0" style="stop-color:#FFFFFF"/>
			<stop  offset="1" style="stop-color:#FFFFFF;stop-opacity:0"/>
		</radialGradient>
		<path style="opacity:0.4;fill:url(#SVGID_00000070803135903462934030000001464140300970004392_);" d="M151.03,97.55
			c-11.19-9.08-15.56-22.9-9.76-30.88c5.81-7.98,19.58-7.08,30.78,1.99c11.19,9.08,15.55,22.91,9.76,30.88
			C175.99,107.52,162.22,106.63,151.03,97.55z"/>
		
			<radialGradient id="SVGID_00000042706390852354134420000001634442332581785773_" cx="34.1155" cy="108.2856" r="9.1552" gradientTransform="matrix(0.901 -0.4338 1.2628 2.6229 -133.3624 -160.9399)" gradientUnits="userSpaceOnUse">
			<stop  offset="0" style="stop-color:#FFFFFF"/>
			<stop  offset="1" style="stop-color:#FFFFFF;stop-opacity:0"/>
		</radialGradient>
		<path style="opacity:0.2;fill:url(#SVGID_00000042706390852354134420000001634442332581785773_);" d="M40.61,98.82
			c-8.26-12.88-17.85-19.08-21.44-13.85c-3.58,5.22,0.21,19.9,8.46,32.79c8.26,12.88,17.86,19.09,21.44,13.86
			C52.65,126.37,48.86,111.71,40.61,98.82z"/>
	</g>
	<g>
		<g>
			
				<radialGradient id="SVGID_00000090975257620128683570000001118886653068866191_" cx="-211.7089" cy="83.6483" r="18.5905" gradientTransform="matrix(0.866 0.5 -0.5 0.866 272.7088 189.2015)" gradientUnits="userSpaceOnUse">
				<stop  offset="0" style="stop-color:#D0F2FF"/>
				<stop  offset="0.198" style="stop-color:#D5F3FF"/>
				<stop  offset="1" style="stop-color:#85BCF1"/>
			</radialGradient>
			<path style="fill:url(#SVGID_00000090975257620128683570000001118886653068866191_);" d="M57.89,157.55
				c-2.13,3.7-6.86,4.96-10.56,2.83c-3.7-2.13-4.96-6.86-2.83-10.55c2.13-3.7,15.33-11.1,15.33-11.1S60.02,153.85,57.89,157.55z"/>
			
				<radialGradient id="SVGID_00000171686297632018662440000008179621268852805263_" cx="1286.4532" cy="-1699.0432" r="2.9119" gradientTransform="matrix(-1.3036 0.5794 -0.7454 -1.946 459.0801 -3897.1343)" gradientUnits="userSpaceOnUse">
				<stop  offset="0" style="stop-color:#FFFFFF"/>
				<stop  offset="1" style="stop-color:#FFFFFF;stop-opacity:0"/>
			</radialGradient>
			<path style="fill:url(#SVGID_00000171686297632018662440000008179621268852805263_);" d="M44.73,156.26
				c-1.2-3.13-0.47-6.42,1.63-7.35c2.1-0.93,4.77,0.85,5.97,3.98c1.2,3.13,0.47,6.42-1.63,7.35
				C48.6,161.17,45.93,159.39,44.73,156.26z"/>
		</g>
		<g>
			
				<radialGradient id="SVGID_00000165231908117499966430000001545637755379548601_" cx="-183.723" cy="67.4905" r="18.5905" gradientTransform="matrix(0.866 0.5 -0.5 0.866 272.7088 189.2015)" gradientUnits="userSpaceOnUse">
				<stop  offset="0" style="stop-color:#D0F2FF"/>
				<stop  offset="0.198" style="stop-color:#D5F3FF"/>
				<stop  offset="1" style="stop-color:#85BCF1"/>
			</radialGradient>
			<path style="fill:url(#SVGID_00000165231908117499966430000001545637755379548601_);" d="M90.2,157.55
				c-2.13,3.7-6.86,4.96-10.56,2.83c-3.7-2.13-4.96-6.86-2.83-10.55c2.13-3.7,15.33-11.1,15.33-11.1S92.34,153.85,90.2,157.55z"/>
			
				<radialGradient id="SVGID_00000103230752153500814150000004855674790999674806_" cx="1265.2704" cy="-1705.3501" r="2.9118" gradientTransform="matrix(-1.3036 0.5794 -0.7454 -1.946 459.0801 -3897.1343)" gradientUnits="userSpaceOnUse">
				<stop  offset="0" style="stop-color:#FFFFFF"/>
				<stop  offset="1" style="stop-color:#FFFFFF;stop-opacity:0"/>
			</radialGradient>
			<path style="fill:url(#SVGID_00000103230752153500814150000004855674790999674806_);" d="M77.05,156.26
				c-1.2-3.13-0.47-6.42,1.63-7.35c2.1-0.93,4.77,0.85,5.97,3.98c1.2,3.13,0.47,6.42-1.63,7.35
				C80.91,161.17,78.24,159.39,77.05,156.26z"/>
		</g>
		<g>
			
				<radialGradient id="SVGID_00000003094097404338605110000013149940872908619958_" cx="-155.7366" cy="51.3318" r="18.5913" gradientTransform="matrix(0.866 0.5 -0.5 0.866 272.7088 189.2015)" gradientUnits="userSpaceOnUse">
				<stop  offset="0" style="stop-color:#D0F2FF"/>
				<stop  offset="0.198" style="stop-color:#D5F3FF"/>
				<stop  offset="1" style="stop-color:#85BCF1"/>
			</radialGradient>
			<path style="fill:url(#SVGID_00000003094097404338605110000013149940872908619958_);" d="M122.52,157.55
				c-2.13,3.7-6.86,4.96-10.56,2.83c-3.7-2.13-4.96-6.86-2.83-10.55c2.13-3.7,15.33-11.1,15.33-11.1S124.65,153.85,122.52,157.55z"
				/>
			
				<radialGradient id="SVGID_00000119805465763888904920000016595886547916637374_" cx="1244.0876" cy="-1711.6571" r="2.9119" gradientTransform="matrix(-1.3036 0.5794 -0.7454 -1.946 459.0801 -3897.1343)" gradientUnits="userSpaceOnUse">
				<stop  offset="0" style="stop-color:#FFFFFF"/>
				<stop  offset="1" style="stop-color:#FFFFFF;stop-opacity:0"/>
			</radialGradient>
			<path style="fill:url(#SVGID_00000119805465763888904920000016595886547916637374_);" d="M109.36,156.26
				c-1.2-3.13-0.47-6.42,1.63-7.35c2.1-0.93,4.77,0.85,5.97,3.98c1.2,3.13,0.47,6.42-1.63,7.35
				C113.23,161.17,110.56,159.39,109.36,156.26z"/>
		</g>
		<g>
			
				<radialGradient id="SVGID_00000098899820989257389230000014407958635783833479_" cx="-127.7509" cy="35.174" r="18.5905" gradientTransform="matrix(0.866 0.5 -0.5 0.866 272.7088 189.2015)" gradientUnits="userSpaceOnUse">
				<stop  offset="0" style="stop-color:#D0F2FF"/>
				<stop  offset="0.198" style="stop-color:#D5F3FF"/>
				<stop  offset="1" style="stop-color:#85BCF1"/>
			</radialGradient>
			<path style="fill:url(#SVGID_00000098899820989257389230000014407958635783833479_);" d="M154.83,157.55
				c-2.13,3.7-6.86,4.96-10.56,2.83c-3.7-2.13-4.96-6.86-2.83-10.55c2.13-3.7,15.33-11.1,15.33-11.1S156.97,153.85,154.83,157.55z"
				/>
			
				<radialGradient id="SVGID_00000066514024167465758220000008592606418396108478_" cx="1222.905" cy="-1717.9639" r="2.9118" gradientTransform="matrix(-1.3036 0.5794 -0.7454 -1.946 459.0801 -3897.1343)" gradientUnits="userSpaceOnUse">
				<stop  offset="0" style="stop-color:#FFFFFF"/>
				<stop  offset="1" style="stop-color:#FFFFFF;stop-opacity:0"/>
			</radialGradient>
			<path style="fill:url(#SVGID_00000066514024167465758220000008592606418396108478_);" d="M141.68,156.26
				c-1.2-3.13-0.47-6.42,1.63-7.35c2.1-0.93,4.77,0.85,5.97,3.98c1.2,3.13,0.47,6.42-1.63,7.35
				C145.54,161.17,142.87,159.39,141.68,156.26z"/>
		</g>
	</g>
	<g>
		<g>
			
				<radialGradient id="SVGID_00000153697276007850823860000005554968415063790761_" cx="-184.1396" cy="99.083" r="18.5906" gradientTransform="matrix(0.866 0.5 -0.5 0.866 272.7088 189.2015)" gradientUnits="userSpaceOnUse">
				<stop  offset="0" style="stop-color:#D0F2FF"/>
				<stop  offset="0.198" style="stop-color:#D5F3FF"/>
				<stop  offset="1" style="stop-color:#85BCF1"/>
			</radialGradient>
			<path style="fill:url(#SVGID_00000153697276007850823860000005554968415063790761_);" d="M74.05,184.7
				c-2.13,3.69-6.86,4.96-10.56,2.83c-3.7-2.13-4.96-6.86-2.83-10.55c2.13-3.7,15.33-11.1,15.33-11.1S76.18,181,74.05,184.7z"/>
			
				<radialGradient id="SVGID_00000183229489048848474390000014718588148499333811_" cx="1282.6793" cy="-1714.1191" r="2.9118" gradientTransform="matrix(-1.3036 0.5794 -0.7454 -1.946 459.0801 -3897.1343)" gradientUnits="userSpaceOnUse">
				<stop  offset="0" style="stop-color:#FFFFFF"/>
				<stop  offset="1" style="stop-color:#FFFFFF;stop-opacity:0"/>
			</radialGradient>
			<path style="fill:url(#SVGID_00000183229489048848474390000014718588148499333811_);" d="M60.89,183.41
				c-1.2-3.13-0.47-6.42,1.63-7.35c2.1-0.93,4.77,0.85,5.97,3.98c1.2,3.13,0.47,6.42-1.63,7.35
				C64.76,188.32,62.09,186.54,60.89,183.41z"/>
		</g>
		<g>
			
				<radialGradient id="SVGID_00000009556661360245016250000001950115480645809070_" cx="-156.1535" cy="82.9247" r="18.5906" gradientTransform="matrix(0.866 0.5 -0.5 0.866 272.7088 189.2015)" gradientUnits="userSpaceOnUse">
				<stop  offset="0" style="stop-color:#D0F2FF"/>
				<stop  offset="0.198" style="stop-color:#D5F3FF"/>
				<stop  offset="1" style="stop-color:#85BCF1"/>
			</radialGradient>
			<path style="fill:url(#SVGID_00000009556661360245016250000001950115480645809070_);" d="M106.36,184.7
				c-2.13,3.69-6.86,4.96-10.56,2.83c-3.7-2.13-4.96-6.86-2.83-10.55c2.13-3.7,15.33-11.1,15.33-11.1S108.49,181,106.36,184.7z"/>
			
				<radialGradient id="SVGID_00000101071197639258426310000017435911060586858138_" cx="1261.496" cy="-1720.4261" r="2.9119" gradientTransform="matrix(-1.3036 0.5794 -0.7454 -1.946 459.0801 -3897.1343)" gradientUnits="userSpaceOnUse">
				<stop  offset="0" style="stop-color:#FFFFFF"/>
				<stop  offset="1" style="stop-color:#FFFFFF;stop-opacity:0"/>
			</radialGradient>
			<path style="fill:url(#SVGID_00000101071197639258426310000017435911060586858138_);" d="M93.2,183.41
				c-1.2-3.13-0.47-6.42,1.63-7.35c2.1-0.93,4.77,0.85,5.97,3.98c1.2,3.13,0.47,6.42-1.63,7.35
				C97.07,188.32,94.4,186.54,93.2,183.41z"/>
		</g>
		<g>
			
				<radialGradient id="SVGID_00000083060338203852793800000007410275501284328124_" cx="-128.1675" cy="66.7665" r="18.5906" gradientTransform="matrix(0.866 0.5 -0.5 0.866 272.7088 189.2015)" gradientUnits="userSpaceOnUse">
				<stop  offset="0" style="stop-color:#D0F2FF"/>
				<stop  offset="0.198" style="stop-color:#D5F3FF"/>
				<stop  offset="1" style="stop-color:#85BCF1"/>
			</radialGradient>
			<path style="fill:url(#SVGID_00000083060338203852793800000007410275501284328124_);" d="M138.68,184.7
				c-2.13,3.69-6.86,4.96-10.56,2.83c-3.7-2.13-4.96-6.86-2.83-10.55c2.13-3.7,15.33-11.1,15.33-11.1S140.81,181,138.68,184.7z"/>
			
				<radialGradient id="SVGID_00000150098512891175012660000011366388767356637318_" cx="1240.3135" cy="-1726.7329" r="2.912" gradientTransform="matrix(-1.3036 0.5794 -0.7454 -1.946 459.0801 -3897.1343)" gradientUnits="userSpaceOnUse">
				<stop  offset="0" style="stop-color:#FFFFFF"/>
				<stop  offset="1" style="stop-color:#FFFFFF;stop-opacity:0"/>
			</radialGradient>
			<path style="fill:url(#SVGID_00000150098512891175012660000011366388767356637318_);" d="M125.52,183.41
				c-1.2-3.13-0.47-6.42,1.63-7.35c2.1-0.93,4.77,0.85,5.97,3.98c1.2,3.13,0.47,6.42-1.63,7.35
				C129.39,188.32,126.72,186.54,125.52,183.41z"/>
		</g>
	</g>
</g>
</svg>
