<?xml version="1.0" encoding="utf-8"?>
<!-- Generator: Adobe Illustrator 27.5.0, SVG Export Plug-In . SVG Version: 6.00 Build 0)  -->
<svg version="1.1" id="Layer_1" xmlns="http://www.w3.org/2000/svg" xmlns:xlink="http://www.w3.org/1999/xlink" x="0px" y="0px"
	 viewBox="0 0 200 200" style="enable-background:new 0 0 200 200;" xml:space="preserve">
<style type="text/css">
	.st0{fill:url(#SVGID_1_);}
	.st1{fill:url(#SVGID_00000084499458565978333350000012478619685877185409_);}
	.st2{fill:url(#SVGID_00000167378975078107600720000004808600765273519521_);}
	.st3{opacity:0.4;fill:url(#SVGID_00000140721962038158441480000015408998243071247269_);}
</style>
<g>
	<linearGradient id="SVGID_1_" gradientUnits="userSpaceOnUse" x1="180.483" y1="9.7692" x2="25.4306" y2="183.0356">
		<stop  offset="0" style="stop-color:#FFBA24"/>
		<stop  offset="1" style="stop-color:#FF5500"/>
	</linearGradient>
	<polygon class="st0" points="169.07,154.64 149.75,155.91 146.1,174.93 127.51,169.51 117.58,186.14 101.96,174.69 86.94,186.92 
		76.18,170.82 57.89,177.18 53.28,158.37 33.91,158.09 36.02,138.83 17.92,131.94 26.48,114.57 11.83,101.9 25.81,88.51 16.38,71.6 
		34.1,63.79 31.02,44.67 50.34,43.4 53.99,24.38 72.58,29.8 82.51,13.16 98.13,24.61 113.15,12.39 123.91,28.48 142.2,22.12 
		146.81,40.94 166.18,41.23 164.07,60.47 182.18,67.36 173.61,84.74 188.26,97.4 174.28,110.8 183.72,127.71 165.99,135.51 	"/>
	
		<radialGradient id="SVGID_00000067916034373745963730000011673040340305029279_" cx="-89.317" cy="58.6869" r="124.0425" gradientTransform="matrix(-1 0 0 1 25.6729 0)" gradientUnits="userSpaceOnUse">
		<stop  offset="0" style="stop-color:#FFF4C3"/>
		<stop  offset="0.1559" style="stop-color:#FFE036"/>
		<stop  offset="1" style="stop-color:#FA761C"/>
	</radialGradient>
	<path style="fill:url(#SVGID_00000067916034373745963730000011673040340305029279_);" d="M34.7,99.65
		c0,36.09,29.25,65.35,65.34,65.35c36.09,0,65.34-29.26,65.34-65.35c0-36.08-29.26-65.34-65.34-65.34
		C63.96,34.31,34.7,63.57,34.7,99.65z"/>
	<g>
		
			<radialGradient id="SVGID_00000015356617406989607020000013239752623274504074_" cx="1131.4731" cy="-1827.0837" r="18.62" gradientTransform="matrix(-0.8392 1.1536 -1.6186 -1.3126 -1882.1594 -3632.0471)" gradientUnits="userSpaceOnUse">
			<stop  offset="0" style="stop-color:#FFFFFF"/>
			<stop  offset="1" style="stop-color:#FFFFFF;stop-opacity:0"/>
		</radialGradient>
		<path style="fill:url(#SVGID_00000015356617406989607020000013239752623274504074_);" d="M110,92.93
			C93.36,79.43,86.86,58.88,95.49,47.01c8.63-11.86,29.12-10.53,45.77,2.96c16.64,13.5,23.13,34.06,14.51,45.92
			C147.13,107.76,126.64,106.42,110,92.93z"/>
		
			<radialGradient id="SVGID_00000176010318548733384320000014234259738305949333_" cx="-2925.2346" cy="2925.0291" r="17.9672" gradientTransform="matrix(-1.1717 -1.1007 0.222 -0.7283 -4013.5071 -955.6343)" gradientUnits="userSpaceOnUse">
			<stop  offset="0" style="stop-color:#FFFFFF"/>
			<stop  offset="1" style="stop-color:#FFFFFF;stop-opacity:0"/>
		</radialGradient>
		<path style="opacity:0.4;fill:url(#SVGID_00000176010318548733384320000014234259738305949333_);" d="M42.29,114.1
			c2.21-7.23,13.41-4.23,25.04,6.69c11.63,10.92,19.26,25.63,17.07,32.86c-2.2,7.22-13.41,4.23-25.04-6.69
			C47.74,136.03,40.1,121.31,42.29,114.1z"/>
	</g>
</g>
</svg>
