<?xml version="1.0" encoding="utf-8"?>
<!-- Generator: Adobe Illustrator 27.5.0, SVG Export Plug-In . SVG Version: 6.00 Build 0)  -->
<svg version="1.1" id="Layer_1" xmlns="http://www.w3.org/2000/svg" xmlns:xlink="http://www.w3.org/1999/xlink" x="0px" y="0px"
	 viewBox="0 0 200 200" style="enable-background:new 0 0 200 200;" xml:space="preserve">
<style type="text/css">
	.st0{fill:url(#SVGID_1_);}
	.st1{fill:url(#SVGID_00000000922163550174855130000001275754463541350551_);}
	.st2{fill:url(#SVGID_00000143583240845565028740000004565217963369355705_);}
	.st3{opacity:0.6;fill:url(#SVGID_00000016072852139135731410000012241639442032438155_);}
	.st4{opacity:0.4;fill:url(#SVGID_00000126284308186696091410000008951541210994500753_);}
	.st5{opacity:0.2;fill:url(#SVGID_00000021806585684734594910000009040639143300267939_);}
</style>
<g>
	<linearGradient id="SVGID_1_" gradientUnits="userSpaceOnUse" x1="64.9221" y1="186.8256" x2="86.6284" y2="118.474">
		<stop  offset="0.1559" style="stop-color:#FFE036"/>
		<stop  offset="1" style="stop-color:#FA761C"/>
	</linearGradient>
	<path class="st0" d="M89.96,144.62h-1.71h-6.5l13.54-26.32c0.58-1.15,1.06-2.45,1.34-3.77c1.74-8.17-3.47-16.2-11.64-17.94
		c-8.17-1.74-16.2,3.47-17.94,11.64l-9.05,42.52l-0.28,1.31c-0.12,0.6-0.19,1.23-0.19,1.86c0,5.06,4.11,9.17,9.17,9.17h10.02
		l-5.41,22.55c-0.19,0.81,0.1,1.7,0.82,2.22c0.95,0.69,2.28,0.48,2.98-0.47l21.54-29.68c0.99-1.36,1.57-3.04,1.57-4.85
		C98.21,148.31,94.52,144.62,89.96,144.62z"/>
	
		<linearGradient id="SVGID_00000175291311592165442060000015148225877755964581_" gradientUnits="userSpaceOnUse" x1="111.2939" y1="186.8258" x2="133.0004" y2="118.4736">
		<stop  offset="0.1559" style="stop-color:#FFE036"/>
		<stop  offset="1" style="stop-color:#FA761C"/>
	</linearGradient>
	<path style="fill:url(#SVGID_00000175291311592165442060000015148225877755964581_);" d="M136.33,144.62h-1.71h-6.5l13.54-26.32
		c0.58-1.15,1.06-2.45,1.34-3.77c1.74-8.17-3.47-16.2-11.64-17.94c-8.17-1.74-16.2,3.47-17.94,11.64l-9.05,42.52l-0.28,1.31
		c-0.13,0.6-0.19,1.23-0.19,1.86c0,5.06,4.11,9.17,9.17,9.17h10.02l-5.41,22.55c-0.19,0.81,0.1,1.7,0.82,2.22
		c0.95,0.69,2.28,0.48,2.98-0.47l21.54-29.68c0.99-1.36,1.57-3.04,1.57-4.85C144.58,148.31,140.89,144.62,136.33,144.62z"/>
	<g>
		<g>
			
				<radialGradient id="SVGID_00000101104529904726146990000008481558863586714782_" cx="122.5733" cy="37.68" r="132.3286" gradientTransform="matrix(-1 0 0 -0.7305 245.1465 65.2048)" gradientUnits="userSpaceOnUse">
				<stop  offset="0" style="stop-color:#B6CCD2"/>
				<stop  offset="0.198" style="stop-color:#97B6BE"/>
				<stop  offset="1" style="stop-color:#5D87B4"/>
			</radialGradient>
			<path style="fill:url(#SVGID_00000101104529904726146990000008481558863586714782_);" d="M151.44,59.1
				c-1.81-26.46-23.83-47.36-50.74-47.36c-26.92,0-48.93,20.91-50.75,47.36c-20.05,0.99-36,17.56-36,37.85
				c0,20.94,16.97,37.9,37.9,37.9h97.69c20.93,0,37.9-16.97,37.9-37.9C187.44,76.65,171.49,60.08,151.44,59.1z"/>
			
				<radialGradient id="SVGID_00000051374174494697256290000007978967689384495749_" cx="1120.787" cy="-1816.6212" r="15.965" gradientTransform="matrix(-0.8392 1.1536 -1.6186 -1.3126 -1882.1594 -3632.0471)" gradientUnits="userSpaceOnUse">
				<stop  offset="0" style="stop-color:#FFFFFF"/>
				<stop  offset="1" style="stop-color:#FFFFFF;stop-opacity:0"/>
			</radialGradient>
			<path style="opacity:0.6;fill:url(#SVGID_00000051374174494697256290000007978967689384495749_);" d="M104.26,63.81
				c-14.27-11.58-19.84-29.2-12.45-39.37c7.4-10.17,24.97-9.03,39.24,2.54c14.26,11.57,19.83,29.21,12.44,39.37
				C136.09,76.52,118.53,75.38,104.26,63.81z"/>
			
				<radialGradient id="SVGID_00000169544818565644901270000008932577563968674216_" cx="1121.8826" cy="-1844.7302" r="12.547" gradientTransform="matrix(-0.8392 1.1536 -1.6186 -1.3126 -1882.1594 -3632.0471)" gradientUnits="userSpaceOnUse">
				<stop  offset="0" style="stop-color:#FFFFFF"/>
				<stop  offset="1" style="stop-color:#FFFFFF;stop-opacity:0"/>
			</radialGradient>
			<path style="opacity:0.4;fill:url(#SVGID_00000169544818565644901270000008932577563968674216_);" d="M151.71,98.02
				c-11.21-9.1-15.59-22.95-9.78-30.94c5.82-7.99,19.62-7.1,30.84,1.99c11.21,9.1,15.59,22.96,9.78,30.94
				C176.73,108.02,162.92,107.12,151.71,98.02z"/>
			
				<radialGradient id="SVGID_00000070841558346245953340000002084441381620433593_" cx="34.5474" cy="108.7809" r="9.1746" gradientTransform="matrix(0.901 -0.4338 1.2628 2.6229 -133.9451 -161.5563)" gradientUnits="userSpaceOnUse">
				<stop  offset="0" style="stop-color:#FFFFFF"/>
				<stop  offset="1" style="stop-color:#FFFFFF;stop-opacity:0"/>
			</radialGradient>
			<path style="opacity:0.2;fill:url(#SVGID_00000070841558346245953340000002084441381620433593_);" d="M41.05,99.3
				c-8.28-12.91-17.89-19.12-21.49-13.89c-3.59,5.23,0.21,19.94,8.48,32.85c8.28,12.91,17.9,19.13,21.49,13.89
				C53.12,126.91,49.33,112.21,41.05,99.3z"/>
		</g>
	</g>
</g>
</svg>
